<svg xmlns="http://www.w3.org/2000/svg" xmlns:xlink="http://www.w3.org/1999/xlink"><defs>
        <clipPath id="clip0_1_593">
            <path d="M0 0h13v13H0z"/>
        </clipPath>
    </defs><symbol id="arr">
    <path d="M.94 10.94a1.5 1.5 0 000 2.12l9.545 9.547a1.5 1.5 0 102.122-2.122L4.12 12l8.486-8.485a1.5 1.5 0 10-2.122-2.122L.94 10.94zM32 10.5H2v3h30v-3z"/>
</symbol><symbol id="burger">
    <rect width="20" height="2" rx="1"/>
    <rect y="6" width="20" height="2" rx="1"/>
    <rect x="10" y="12" width="10" height="2" rx="1"/>
</symbol><symbol id="close">
    <rect width="20" height="2" rx="1" transform="rotate(45 .536 1.778)"/>
    <rect width="20" height="2" rx="1" transform="rotate(-45 17.278 6.57)"/>
</symbol><symbol id="footer-logo">
    <path fill-rule="evenodd" clip-rule="evenodd" d="M4.043 12.41l7.319-4.024L18 12.243l-.68.335-6.64 3.69-6.637-3.857zM2 15.766v24.821l12.085 6.708 10.043 5.703V45.45l-6.809-3.858-8.68-4.863V19.622L2 15.765zm32.68-3.187l-6.978-4.025-8.34-4.696L26 0l11.915 6.876L50 13.584v27.17l-6.638 3.69V17.441l-8.681-4.864zm.682 36.226v-7.547l-.681.335-6.638 3.858v7.546l7.319-4.192z"/>
    <path fill-rule="evenodd" clip-rule="evenodd" d="M19.532 31.026V16.1l-6.638 3.69v14.926L26 42.263l6.639-3.69-13.107-7.547z"/>
</symbol><symbol id="geo">
    <g clip-path="url(#clip0_1_593)">
        <path d="M8.358 11.961c-.455 1.254-1.737 1.3-2.037 0L5.33 7.67l-4.29-.991c-1.3-.3-1.254-1.653 0-2.109L12.125.034a.67.67 0 01.842.843L8.357 11.96z"/>
    </g>
    
</symbol><symbol id="minus-tb">
    <path d="M.5 2h12" stroke-width="4"/>
</symbol><symbol id="modal-close">
    <path d="M11.313 11.686l22.628 22.627m-.001-22.627L11.314 34.313" stroke-width="4" stroke-linecap="round"/>
</symbol><symbol id="plus-tb">
    <path d="M.5 6h12m-6-6v12" stroke-width="4"/>
</symbol><symbol id="plus">
    <path d="M0 16h32M16 0v32" stroke-width="6"/>
</symbol><symbol id="tel">
    <path d="M13.95 9.657c-.086-.143-.316-.23-.66-.402-.345-.173-2.038-1.006-2.354-1.121-.316-.115-.545-.172-.775.172-.23.345-.89 1.121-1.09 1.351-.202.23-.403.26-.747.087-.344-.173-1.454-.537-2.77-1.71C4.53 7.12 3.84 5.992 3.638 5.647c-.201-.345-.022-.531.15-.703.156-.155.345-.403.518-.604.172-.201.23-.345.344-.575.115-.23.057-.43-.029-.603-.086-.173-.775-1.869-1.062-2.558-.28-.672-.563-.581-.775-.592-.2-.01-.43-.012-.66-.012-.23 0-.603.086-.918.431C.89.776 0 1.61 0 3.305 0 5.001 1.234 6.64 1.406 6.87c.173.23 2.43 3.71 5.885 5.203.822.355 1.463.567 1.963.725.826.263 1.577.226 2.17.137.662-.099 2.038-.833 2.325-1.638.287-.805.287-1.495.2-1.639z"/>
</symbol></svg>