<svg width="49" height="60" fill="none" xmlns="http://www.w3.org/2000/svg"><path d="M24.311 0C10.906 0 0 11.04 0 24.61c0 7.916 3.729 15.126 9.69 19.671 4.42 3.37 9.125 6.764 11.586 11.748l1.482 3c.294.595.895.971 1.553.971.658 0 1.26-.376 1.553-.972l1.482-2.999c2.461-4.983 7.166-8.377 11.586-11.747 5.962-4.545 9.69-11.756 9.69-19.673C48.623 11.04 37.718 0 24.313 0zm0 31.64c-3.83 0-6.946-3.153-6.946-7.03 0-3.878 3.116-7.032 6.946-7.032 3.83 0 6.947 3.154 6.947 7.031 0 3.878-3.116 7.032-6.947 7.032z" fill="#FF794C"/></svg>