<svg width="120" height="120" fill="none" xmlns="http://www.w3.org/2000/svg"><path d="M60 120c33.137 0 60-26.863 60-60S93.137 0 60 0 0 26.863 0 60s26.863 60 60 60z" fill="#DADADA"/><path d="M79.952 66.188c-.223-.372-.817-.595-1.709-1.041-.891-.446-5.274-2.603-6.091-2.9-.817-.298-1.412-.447-2.006.446-.594.892-2.303 2.9-2.823 3.495-.52.595-1.04.67-1.931.223-.892-.446-3.764-1.387-7.17-4.425-2.65-2.363-4.439-5.283-4.959-6.175-.52-.892-.055-1.375.391-1.82.401-.399.892-1.04 1.337-1.561.446-.52.595-.893.892-1.487.297-.596.149-1.116-.074-1.562-.223-.446-2.006-4.834-2.749-6.62-.724-1.738-1.459-1.502-2.006-1.53a35.393 35.393 0 00-1.708-.031c-.594 0-1.56.223-2.377 1.115-.818.893-3.12 3.05-3.12 7.437 0 4.388 3.194 8.627 3.64 9.222.445.595 6.286 9.6 15.228 13.461a51.195 51.195 0 005.082 1.878c2.136.679 4.08.583 5.615.353 1.713-.256 5.275-2.156 6.018-4.239.742-2.082.742-3.867.52-4.239z" fill="#fff"/></svg>