<svg width="120" height="120" fill="none" xmlns="http://www.w3.org/2000/svg"><path d="M60 120c33.137 0 60-26.863 60-60S93.137 0 60 0 0 26.863 0 60s26.863 60 60 60z" fill="#DADADA"/><path d="M49 87.5c-1.944 0-1.614-.734-2.284-2.585L41 66.103 85 40" fill="#E8E8E8"/><path d="M49 87.5c1.5 0 2.163-.686 3-1.5l8-7.78-9.979-6.017" fill="#CBCBCB"/><path d="M50.02 72.205L74.2 90.069c2.76 1.523 4.75.735 5.438-2.561l9.843-46.382c1.007-4.04-1.54-5.872-4.18-4.674L27.506 58.738c-3.945 1.582-3.922 3.783-.72 4.764l14.832 4.629 34.337-21.663c1.62-.983 3.108-.454 1.887.63" fill="#fff"/></svg>