<svg width="120" height="120" fill="none" xmlns="http://www.w3.org/2000/svg"><path d="M60 0c33.137 0 60 26.863 60 60s-26.863 60-60 60S0 93.137 0 60 26.863 0 60 0z" fill="#DADADA"/><path d="M73.31 53.678c-.247-2.002-.862-3.574-1.955-4.967-1.42-1.793-3.233-2.867-5.918-3.503-1.75-.425-2.456-.376-3.09.202-.589.541-.704 1.627-.253 2.33.316.51.682.693 1.698.893 1.354.249 2.29.572 3.14 1.058 1.806 1.043 2.647 2.675 2.737 5.317.043 1.24.15 1.622.583 2.062.803.804 2.232.648 2.838-.315.223-.362.257-.52.28-1.363a13.493 13.493 0 00-.06-1.714z" fill="#fff"/><path d="M80.383 55.935c-.356-6.134-2.756-11.069-7.05-14.541-2.419-1.951-5.343-3.293-8.549-3.945-1.174-.234-3.336-.423-3.707-.315-.35.1-.845.48-1.065.822-.234.372-.286 1.201-.087 1.681.321.803.919 1.086 2.592 1.233 2.58.225 5.242 1.132 7.253 2.474a15.21 15.21 0 015.3 6.074c1.02 2.11 1.648 5.15 1.63 7.874-.005.985.147 1.54.543 1.948.598.625 1.47.761 2.239.346.852-.448 1.051-1.235.901-3.65zm7.33 23.96a6.686 6.686 0 00-.59-1.19c-1.24-1.883-7.905-7.128-11.233-8.843-1.9-.982-3.307-1.309-4.351-1.002-1.122.318-1.713.843-3.593 3.193-.758.942-1.536 1.824-1.743 1.963-.512.357-1.516.644-2.225.644-1.644-.01-4.626-1.08-6.92-2.488-1.782-1.09-4.066-3.044-5.818-4.977-2.068-2.27-3.475-4.273-4.588-6.534-1.437-2.904-1.801-4.68-1.2-5.978.147-.327.344-.674.433-.783.088-.1 1.014-.863 2.037-1.696 2.009-1.606 2.333-1.973 2.708-3.073.472-1.398.344-2.826-.384-4.263-.562-1.09-2.028-3.47-3.092-5.007-1.407-2.022-4.912-6.345-5.61-6.93-1.261-1.031-2.875-1.21-4.657-.516-1.88.734-5.405 3.59-6.911 5.582-1.359 1.805-1.88 3.084-1.959 4.769-.069 1.388.05 1.963.778 3.738 5.7 13.92 14.205 25.033 25.89 33.857 6.104 4.61 12.434 8.12 19 10.52 3.83 1.397 5.493 1.467 7.452.317.827-.496 2.875-2.608 4.017-4.144 1.89-2.558 2.589-3.738 2.786-4.68.138-.645.03-1.765-.227-2.479z" fill="#fff"/><path d="M87.584 57.344c-.128-3.47-.712-6.316-1.93-9.489-1.203-3.121-2.42-5.158-4.718-7.913-2.174-2.583-3.862-4.058-6.539-5.7-3.735-2.287-8.28-3.8-13.375-4.437-1.737-.223-2.13-.207-2.663.149-1.033.674-1.019 2.354.017 3.017.343.212.647.289 2.037.47 2.133.288 3.505.558 5.133 1.002 6.382 1.745 11.29 5.311 14.571 10.605 2.746 4.413 3.886 8.826 3.724 14.462-.056 1.905-.015 2.24.276 2.698.558.853 2.029 1.022 2.783.314.47-.431.558-.755.651-2.386.044-.85.054-2.107.033-2.792z" fill="#fff"/></svg>