<svg width="120" height="120" fill="none" xmlns="http://www.w3.org/2000/svg"><path d="M60 120c33.137 0 60-26.863 60-60S93.137 0 60 0 0 26.863 0 60s26.863 60 60 60z" fill="#DADADA"/><path fill-rule="evenodd" clip-rule="evenodd" d="M61.978 93.381h-.015a35.646 35.646 0 01-17.05-4.342L26 94l5.061-18.488A35.613 35.613 0 0126.3 57.676C26.307 38.004 42.312 22 61.977 22c9.545.004 18.503 3.72 25.239 10.464 6.736 6.743 10.443 15.707 10.44 25.24-.009 19.667-16.007 35.67-35.678 35.677zM45.79 82.58l1.083.643a29.609 29.609 0 0015.093 4.133h.012c16.344 0 29.647-13.303 29.653-29.654.003-7.924-3.078-15.374-8.677-20.98-5.598-5.605-13.044-8.693-20.965-8.696-16.357 0-29.66 13.302-29.666 29.652a29.582 29.582 0 004.534 15.781l.705 1.122-2.996 10.943L45.79 82.58zm32.94-17.195c.622.3 1.042.504 1.22.803.224.372.224 2.156-.519 4.24-.743 2.082-4.304 3.982-6.017 4.238-1.536.23-3.48.325-5.615-.353a51.195 51.195 0 01-5.082-1.878c-8.358-3.609-14.005-11.709-15.073-13.24-.075-.107-.127-.182-.156-.221l-.007-.01c-.472-.63-3.633-4.847-3.633-9.212 0-4.106 2.017-6.259 2.945-7.25l.175-.187c.817-.892 1.783-1.115 2.377-1.115.594 0 1.19.005 1.709.031.064.003.13.003.2.002.519-.002 1.166-.006 1.805 1.528.246.591.606 1.467.985 2.39.767 1.868 1.615 3.931 1.764 4.23.223.446.372.966.074 1.562l-.125.254c-.223.455-.387.79-.766 1.233-.15.173-.303.361-.457.548-.307.374-.613.747-.88 1.013-.447.445-.911.927-.391 1.82.52.892 2.309 3.811 4.96 6.175 2.848 2.541 5.324 3.615 6.579 4.16.245.106.444.192.59.265.89.446 1.41.372 1.93-.223s2.229-2.603 2.823-3.496c.594-.892 1.189-.743 2.006-.446.817.298 5.2 2.454 6.091 2.9.175.088.337.166.488.24z" fill="#FDFDFD"/></svg>