<svg width="49" height="60" viewBox="0 0 49 60" fill="none" xmlns="http://www.w3.org/2000/svg">
<path d="M24.3114 0C24.3114 0 24.3114 0 24.3114 0C10.9062 0 0 11.0399 0 24.6094C0 32.5257 3.7288 39.7359 9.69012 44.281C14.1104 47.6511 18.8149 51.0453 21.2765 56.029L22.758 59.0282C23.0524 59.6237 23.6534 60 24.3114 60C24.9689 60 25.5703 59.6237 25.8643 59.0282L27.3456 56.0293C29.8073 51.0457 34.5119 47.6517 38.9322 44.2817C44.8938 39.7365 48.6227 32.5261 48.6227 24.6094C48.6227 11.0399 37.7165 0 24.3114 0C24.3114 0 24.3114 0 24.3114 0ZM24.3114 31.6406C20.4811 31.6406 17.3653 28.4866 17.3653 24.6094C17.3653 20.7321 20.4811 17.5781 24.3114 17.5781C28.1417 17.5781 31.2575 20.7321 31.2575 24.6094C31.2575 28.4866 28.1417 31.6406 24.3114 31.6406Z" fill="#FF794C"/>
</svg>
