<svg width="120" height="120" viewBox="0 0 120 120" fill="none" xmlns="http://www.w3.org/2000/svg">
<path d="M60 120C93.1371 120 120 93.1371 120 60C120 26.8629 93.1371 0 60 0C26.8629 0 0 26.8629 0 60C0 93.1371 26.8629 120 60 120Z" fill="#DADADA"/>
<path d="M79.9516 66.1881C79.7288 65.8163 79.1346 65.5932 78.2431 65.1468C77.3517 64.7006 72.9688 62.5442 72.1515 62.2465C71.3345 61.9491 70.74 61.8005 70.1458 62.6926C69.5516 63.585 67.8431 65.5932 67.3231 66.1881C66.803 66.7829 66.283 66.8576 65.3918 66.4112C64.5004 65.9651 61.6279 65.0238 58.2228 61.9865C55.5726 59.6226 53.7835 56.7034 53.2635 55.811C52.7434 54.9185 53.208 54.4362 53.6543 53.9916C54.0554 53.5921 54.5458 52.9501 54.9915 52.4298C55.4372 51.9094 55.5858 51.5373 55.883 50.9427C56.1801 50.3475 56.0316 49.8271 55.8087 49.3808C55.5858 48.9346 53.803 44.5466 53.0601 42.7616C52.3364 41.0233 51.6015 41.2587 51.0544 41.2313C50.535 41.2052 49.94 41.1997 49.3458 41.1997C48.7515 41.1997 47.7856 41.4228 46.9685 42.3153C46.1514 43.2078 43.8484 45.3646 43.8484 49.7523C43.8484 54.1403 47.0428 58.3793 47.4885 58.9742C47.9342 59.5694 53.7746 68.5736 62.7174 72.435C64.8443 73.3536 66.5047 73.9021 67.7995 74.3129C69.935 74.9916 71.8786 74.8958 73.4144 74.6661C75.1273 74.4103 78.6887 72.5097 79.4319 70.4274C80.1744 68.3447 80.1744 66.5598 79.9516 66.1881Z" fill="white"/>
</svg>
