<svg width="120" height="120" viewBox="0 0 120 120" fill="none" xmlns="http://www.w3.org/2000/svg">
<path d="M60 120C93.1371 120 120 93.1371 120 60C120 26.8629 93.1371 0 60 0C26.8629 0 0 26.8629 0 60C0 93.1371 26.8629 120 60 120Z" fill="#DADADA"/>
<path d="M49 87.5C47.0562 87.5 47.3865 86.766 46.7161 84.9152L41 66.1029L85 40" fill="#E8E8E8"/>
<path d="M49 87.4998C50.5 87.4998 51.1627 86.8138 52 85.9998L60 78.2209L50.021 72.2034" fill="#CBCBCB"/>
<path d="M50.02 72.205L74.2 90.0694C76.9593 91.5919 78.9507 90.8036 79.638 87.5077L89.4805 41.1262C90.4882 37.0861 87.9405 35.2537 85.3008 36.4521L27.5058 58.7376C23.5607 60.32 23.5837 62.5209 26.7867 63.5016L41.6182 68.1308L75.9547 46.4683C77.5757 45.4853 79.0634 46.0138 77.8423 47.0975" fill="white"/>
</svg>
