<svg width="120" height="120" viewBox="0 0 120 120" fill="none" xmlns="http://www.w3.org/2000/svg">
<path d="M60 -1.52588e-05C93.1371 -1.52588e-05 120 26.8629 120 60C120 93.1371 93.1371 120 60 120C26.8629 120 0 93.1371 0 60C0 26.8629 26.8629 -1.52588e-05 60 -1.52588e-05Z" fill="#DADADA"/>
<path d="M73.3093 53.6779C73.0629 51.6757 72.4475 50.1037 71.3547 48.7112C69.9356 46.9181 68.1221 45.8444 65.4372 45.2075C63.6875 44.7829 62.9806 44.8317 62.3477 45.4097C61.7583 45.9513 61.6432 47.037 62.0937 47.7401C62.4104 48.2504 62.7759 48.4332 63.7924 48.6327C65.1459 48.8817 66.0813 49.2049 66.9322 49.6915C68.7383 50.7343 69.5793 52.3662 69.6694 55.0081C69.7115 56.2486 69.8187 56.63 70.2519 57.0699C71.055 57.8742 72.4841 57.7177 73.0903 56.7553C73.3128 56.3926 73.3467 56.2347 73.3702 55.3924C73.3857 54.8709 73.3633 54.0947 73.3093 53.6779Z" fill="white"/>
<path d="M80.3832 55.9351C80.0265 49.8011 77.6273 44.866 73.3334 41.3937C70.9141 39.4427 67.9898 38.1011 64.7844 37.4486C63.6101 37.2153 61.4483 37.0261 61.0774 37.1343C60.7274 37.2345 60.2324 37.6135 60.0118 37.9561C59.7784 38.3278 59.7259 39.1575 59.9249 39.6375C60.2461 40.4398 60.8438 40.7233 62.5174 40.8697C65.0977 41.0954 67.7589 42.002 69.7697 43.344C72.0654 44.872 73.8903 46.9619 75.0708 49.4178C76.0908 51.5279 76.7182 54.5688 76.7008 57.2919C76.695 58.2767 76.8471 58.8329 77.2432 59.2396C77.841 59.8648 78.7124 60.0015 79.4815 59.5862C80.3339 59.138 80.5333 58.3512 80.3832 55.9351Z" fill="white"/>
<path d="M87.7133 79.8952C87.5952 79.5482 87.3196 79.0128 87.1227 78.7054C85.8823 76.8218 79.2177 71.5771 75.8902 69.8618C73.9903 68.8804 72.5826 68.5532 71.539 68.8604C70.4168 69.1779 69.8261 69.7032 67.9458 72.0529C67.1879 72.9948 66.4101 73.8773 66.2034 74.0159C65.6914 74.3729 64.6873 74.6605 63.9785 74.6605C62.3345 74.6504 59.3517 73.5798 57.0579 72.1719C55.2761 71.0814 52.9923 69.1283 51.2399 67.1949C49.1725 64.9246 47.7649 62.9219 46.6524 60.6614C45.2152 57.7565 44.8509 55.9818 45.4514 54.6829C45.5991 54.3558 45.796 54.0089 45.8845 53.8997C45.9731 53.8007 46.8985 53.0372 47.9222 52.2043C49.9306 50.5983 50.2554 50.2315 50.6295 49.131C51.102 47.7329 50.9741 46.3053 50.2456 44.8678C49.6844 43.7771 48.2176 41.3977 47.1545 39.861C45.7467 37.8386 42.2421 33.5159 41.5431 32.9308C40.283 31.8998 38.6687 31.7212 36.8867 32.4154C35.0065 33.1491 31.4822 36.0044 29.9759 37.9972C28.6174 39.8016 28.0958 41.0805 28.017 42.7659C27.9481 44.1539 28.0662 44.7289 28.7947 46.5036C34.4946 60.4234 43 71.5374 54.6854 80.3613C60.7889 84.9713 67.1189 88.4811 73.6851 90.8805C77.5145 92.2783 79.1782 92.3476 81.1373 91.1977C81.9641 90.7019 84.0118 88.5901 85.1537 87.0535C87.0439 84.4955 87.7429 83.3157 87.9397 82.3738C88.0776 81.7294 87.9693 80.6092 87.7133 79.8952Z" fill="white"/>
<path d="M87.5844 57.3439C87.4564 53.8741 86.8722 51.0281 85.654 47.855C84.4514 44.7337 83.2342 42.6969 80.9355 39.9421C78.7622 37.3591 77.0742 35.8842 74.397 34.2426C70.6619 31.9552 66.1164 30.4415 61.0223 29.8049C59.2851 29.5825 58.8921 29.5984 58.3591 29.954C57.3263 30.6277 57.3401 32.308 58.3761 32.9715C58.7191 33.1826 59.0234 33.2595 60.413 33.4414C62.5462 33.7286 63.9179 33.9993 65.5455 34.4434C71.9279 36.1881 76.836 39.7543 80.1173 45.0483C82.8633 49.4608 84.0031 53.8737 83.8413 59.5097C83.785 61.415 83.8259 61.7503 84.1172 62.2081C84.675 63.0614 86.1459 63.2302 86.9005 62.5221C87.37 62.0906 87.4585 61.7666 87.551 60.1359C87.5953 59.2852 87.6048 58.0294 87.5844 57.3439Z" fill="white"/>
</svg>
