<svg width="120" height="120" viewBox="0 0 120 120" fill="none" xmlns="http://www.w3.org/2000/svg">
<path d="M60 120C93.1371 120 120 93.1371 120 60C120 26.8629 93.1371 0 60 0C26.8629 0 0 26.8629 0 60C0 93.1371 26.8629 120 60 120Z" fill="#DADADA"/>
<path fill-rule="evenodd" clip-rule="evenodd" d="M61.9777 93.3813H61.9629C55.9918 93.3792 50.1245 91.8811 44.9134 89.0386L26 94L31.0615 75.5121C27.9393 70.1013 26.2964 63.9637 26.2991 57.6756C26.307 38.0042 42.312 22 61.9773 22C71.5216 22.0041 80.4795 25.7197 87.2155 32.4635C93.9515 39.207 97.6591 48.1708 97.6553 57.7038C97.6474 77.3707 81.6487 93.3733 61.9777 93.3813ZM45.7897 82.5799L46.8725 83.2226C51.4255 85.9244 56.6445 87.354 61.9657 87.356H61.9777C78.3221 87.356 91.6248 74.053 91.6313 57.7019C91.6344 49.7782 88.5529 42.3279 82.9542 36.7226C77.3555 31.1174 69.91 28.029 61.9894 28.0262C45.6323 28.0262 32.3294 41.3279 32.323 57.6778C32.3207 63.2811 33.8884 68.738 36.8569 73.4593L37.5619 74.5812L34.5662 85.524L45.7897 82.5799ZM78.731 65.3853C79.3528 65.6858 79.7726 65.8887 79.9519 66.188C80.1747 66.5596 80.1747 68.3445 79.4322 70.4272C78.689 72.5096 75.1276 74.4101 73.4147 74.6659C71.8789 74.8956 69.9353 74.9914 67.7999 74.3127C66.5051 73.9019 64.8447 73.3534 62.7178 72.4348C54.3604 68.8262 48.7126 60.7261 47.6451 59.1952C47.5704 59.088 47.5181 59.0129 47.4889 58.974L47.4817 58.9644C47.0099 58.3349 43.8488 54.1172 43.8488 49.7521C43.8488 45.6457 45.8659 43.4934 46.7944 42.5027C46.858 42.4348 46.9165 42.3724 46.9689 42.3151C47.786 41.4226 48.7518 41.1995 49.3461 41.1995C49.9403 41.1995 50.5353 41.205 51.0547 41.2311C51.1188 41.2343 51.1854 41.2339 51.2544 41.2335C51.7739 41.2305 52.4215 41.2267 53.0604 42.7614C53.3062 43.352 53.6659 44.2276 54.0453 45.1512C54.8124 47.0187 55.6599 49.0821 55.809 49.3806C56.0319 49.8269 56.1805 50.3473 55.8833 50.9425C55.8387 51.0318 55.7975 51.116 55.758 51.1965C55.5349 51.6521 55.3707 51.9873 54.9919 52.4296C54.8429 52.6035 54.689 52.791 54.535 52.9784C54.2283 53.3519 53.9217 53.7254 53.6546 53.9914C53.2084 54.436 52.7438 54.9183 53.2638 55.8108C53.7838 56.7033 55.5729 59.6224 58.2231 61.9863C61.0719 64.5274 63.5479 65.6014 64.8029 66.1457C65.048 66.252 65.2465 66.3381 65.3922 66.411C66.2833 66.8574 66.8034 66.7827 67.3234 66.188C67.8435 65.593 69.5519 63.5848 70.1461 62.6924C70.7403 61.8003 71.3348 61.9489 72.1518 62.2463C72.9692 62.544 77.352 64.7004 78.2435 65.1466C78.4175 65.2337 78.5802 65.3124 78.731 65.3853Z" fill="#FDFDFD"/>
</svg>
