<svg width="53" height="53" viewBox="0 0 53 53" fill="none" xmlns="http://www.w3.org/2000/svg">
<path fill-rule="evenodd" clip-rule="evenodd" d="M4.04255 12.4106L11.3617 8.38551L18 12.2429L17.3191 12.5783L10.6809 16.2679L4.04255 12.4106ZM2 15.7648V27.0014V40.5859L14.0851 47.2943L24.1277 52.9965V45.4495L17.3191 41.5922L8.6383 36.7286V27.0014V19.6221L2 15.7648ZM34.6809 12.5783L27.7021 8.55322L19.3617 3.85734L26 0L37.9149 6.87612L50 13.5845V27.1691V40.7536L43.3617 44.4432V35.89V27.1691V17.4419L34.6809 12.5783ZM35.3617 48.8037V41.2567L34.6809 41.5922L28.0426 45.4495V52.9965L35.3617 48.8037Z" fill="#FF794C"/>
<path fill-rule="evenodd" clip-rule="evenodd" d="M19.5321 31.0263V24.4856V16.1001L12.8938 19.7897V34.7159L26.0002 42.2629L32.6385 38.5733L19.5321 31.0263Z" fill="#FF794C"/>
</svg>
